<svg width="19" height="19" viewBox="0 0 19 19" fill="none" xmlns="http://www.w3.org/2000/svg">
<path d="M12.182 3.8852C12.4838 3.53665 12.7139 3.13179 12.8591 2.69387C13.0044 2.25596 13.0618 1.79361 13.0282 1.33337C12.1017 1.40832 11.2415 1.84498 10.6332 2.54929C10.3419 2.88685 10.1211 3.27955 9.98399 3.70413C9.84686 4.12872 9.79615 4.57655 9.83485 5.02113C10.2868 5.0249 10.7336 4.92441 11.1406 4.72744C11.5476 4.53046 11.9039 4.24228 12.182 3.8852ZM14.1938 9.83681C14.1992 9.22384 14.3603 8.62234 14.662 8.08909C14.9637 7.55583 15.3961 7.1084 15.9182 6.78901C15.5887 6.31323 15.1531 5.92094 14.6459 5.64323C14.1387 5.36552 13.5739 5.21004 12.9963 5.18912C11.7509 5.06113 10.6013 5.91707 9.93864 5.91707C9.27601 5.91707 8.34195 5.20512 7.30411 5.22112C6.62562 5.24351 5.9645 5.44173 5.38524 5.79643C4.80599 6.15113 4.32836 6.65021 3.99896 7.24498C2.59388 9.69282 3.63971 13.3326 5.04479 15.3084C5.68347 16.2764 6.48181 17.3723 7.53562 17.3323C8.58944 17.2923 8.93273 16.6764 10.1542 16.6764C11.3757 16.6764 11.7509 17.3323 12.7887 17.3083C13.8266 17.2843 14.5611 16.3164 15.2317 15.3484C15.7067 14.6457 16.0778 13.8778 16.3334 13.0686C15.7007 12.7982 15.1609 12.3481 14.7806 11.7737C14.4004 11.1994 14.1964 10.526 14.1938 9.83681Z" fill="white"/>
</svg>
