<svg width="36" height="52" viewBox="0 0 36 52" fill="none" xmlns="http://www.w3.org/2000/svg">
<path d="M35.1562 17.5635C35.1562 7.90356 27.2461 0 17.5781 0C7.91016 0 0 7.90356 0 17.5635C0 26.7444 7.03125 34.2488 15.9801 35.0471V41.5137H11.1861C10.3072 41.5137 9.58807 42.2322 9.58807 43.1104C9.58807 43.9885 10.3072 44.707 11.1861 44.707H15.9801V49.4971C15.9801 50.3752 16.6992 51.0938 17.5781 51.0938C18.457 51.0938 19.1761 50.3752 19.1761 49.4971V44.707H23.9702C24.8491 44.707 25.5682 43.9885 25.5682 43.1104C25.5682 42.2322 24.8491 41.5137 23.9702 41.5137H19.1761V35.0471C28.125 34.2488 35.1562 26.7444 35.1562 17.5635ZM3.19602 17.5635C3.19602 9.65991 9.66797 3.19336 17.5781 3.19336C25.4883 3.19336 31.9602 9.65991 31.9602 17.5635C31.9602 25.467 25.4883 31.9336 17.5781 31.9336C9.66797 31.9336 3.19602 25.467 3.19602 17.5635Z" fill="white"/>
</svg>
