<svg width="16" height="16" viewBox="0 0 16 16" fill="none" xmlns="http://www.w3.org/2000/svg">
<g clip-path="url(#clip0_0_487)">
<path d="M15.6168 8.1497C15.6168 7.49419 15.5636 7.01584 15.4486 6.51978H7.96814V9.47843H12.359C12.2705 10.2137 11.7925 11.321 10.7301 12.0651L10.7152 12.1641L13.0804 13.9976L13.2443 14.0139C14.7492 12.6232 15.6168 10.5769 15.6168 8.1497Z" fill="white"/>
<path d="M7.96808 15.945C10.1192 15.945 11.9251 15.2363 13.2442 14.0139L10.7301 12.065C10.0573 12.5345 9.15429 12.8623 7.96808 12.8623C5.86118 12.8623 4.07297 11.4716 3.43552 9.54932L3.34209 9.55726L0.882748 11.4618L0.850586 11.5513C2.16075 14.1556 4.85194 15.945 7.96808 15.945Z" fill="white"/>
<path d="M3.43562 9.5493C3.26742 9.05324 3.17008 8.5217 3.17008 7.97251C3.17008 7.42326 3.26742 6.89177 3.42677 6.39571L3.42232 6.29006L0.932155 4.35492L0.850681 4.3937C0.310698 5.47443 0.000854492 6.68805 0.000854492 7.97251C0.000854492 9.25697 0.310698 10.4705 0.850681 11.5513L3.43562 9.5493Z" fill="white"/>
<path d="M7.96808 3.08269C9.46414 3.08269 10.4733 3.72934 11.0488 4.26974L13.2973 2.07285C11.9163 0.788397 10.1192 0 7.96808 0C4.85194 0 2.16075 1.78937 0.850586 4.39371L3.42668 6.39573C4.07297 4.47347 5.86118 3.08269 7.96808 3.08269Z" fill="white"/>
</g>
<defs>
<clipPath id="clip0_0_487">
<rect width="15.625" height="16" fill="white"/>
</clipPath>
</defs>
</svg>
