<svg width="38" height="52" viewBox="0 0 38 52" fill="none" xmlns="http://www.w3.org/2000/svg">
<path d="M20.4375 13.7527V5.7588L22.6516 7.96989C22.8009 8.1368 22.985 8.269 23.191 8.35716C23.397 8.44532 23.6198 8.4873 23.8438 8.48014C24.2893 8.45725 24.7121 8.27631 25.036 7.96989C25.348 7.65196 25.5228 7.2245 25.5228 6.7793C25.5228 6.3341 25.348 5.90665 25.036 5.58872L19.9266 0.486197C19.6082 0.174557 19.1802 0 18.7344 0C18.2886 0 17.8606 0.174557 17.5422 0.486197L12.4328 5.58872C12.1868 5.91625 12.0674 6.3214 12.0965 6.72979C12.1256 7.13818 12.3011 7.52239 12.591 7.8119C12.8809 8.1014 13.2657 8.27676 13.6746 8.30578C14.0835 8.3348 14.4892 8.21554 14.8172 7.96989L17.0313 5.7588V13.7527C12.2301 14.1904 7.78279 16.4597 4.61429 20.0885C1.44578 23.7172 -0.199946 28.4262 0.0194212 33.2358C0.238789 38.0454 2.30637 42.5855 5.79208 45.9116C9.2778 49.2377 13.9133 51.0938 18.7344 51.0938C23.5555 51.0938 28.191 49.2377 31.6767 45.9116C35.1624 42.5855 37.23 38.0454 37.4494 33.2358C37.6687 28.4262 36.023 23.7172 32.8545 20.0885C29.686 16.4597 25.2386 14.1904 20.4375 13.7527ZM18.7344 47.5995C15.7028 47.5995 12.7392 46.7017 10.2185 45.0197C7.69784 43.3377 5.7332 40.9469 4.57305 38.1498C3.4129 35.3528 3.10935 32.2749 3.70079 29.3055C4.29223 26.3362 5.75209 23.6086 7.89577 21.4678C10.0394 19.327 12.7707 17.8691 15.744 17.2785C18.7174 16.6878 21.7994 16.991 24.6002 18.1496C27.4011 19.3082 29.795 21.2702 31.4793 23.7875C33.1635 26.3048 34.0625 29.2644 34.0625 32.2919C34.0625 36.3517 32.4476 40.2453 29.573 43.116C26.6984 45.9867 22.7997 47.5995 18.7344 47.5995Z" fill="white"/>
</svg>
