<svg width="95" height="95" viewBox="0 0 95 95" fill="none" xmlns="http://www.w3.org/2000/svg">
<rect x="0.5" y="0.5" width="94" height="94" rx="47" stroke="white"/>
<path d="M65.0781 27.0166C65.0781 17.3567 57.168 9.45312 47.5 9.45312C37.832 9.45312 29.9219 17.3567 29.9219 27.0166C29.9219 36.1975 36.9531 43.7019 45.902 44.5002V50.9668H41.108C40.229 50.9668 39.5099 51.6853 39.5099 52.5635C39.5099 53.4417 40.229 54.1602 41.108 54.1602H45.902V58.9502C45.902 59.8284 46.6211 60.5469 47.5 60.5469C48.3789 60.5469 49.098 59.8284 49.098 58.9502V54.1602H53.892C54.771 54.1602 55.4901 53.4417 55.4901 52.5635C55.4901 51.6853 54.771 50.9668 53.892 50.9668H49.098V44.5002C58.0469 43.7019 65.0781 36.1975 65.0781 27.0166ZM33.1179 27.0166C33.1179 19.113 39.5898 12.6465 47.5 12.6465C55.4102 12.6465 61.8821 19.113 61.8821 27.0166C61.8821 34.9202 55.4102 41.3867 47.5 41.3867C39.5898 41.3867 33.1179 34.9202 33.1179 27.0166Z" fill="white"/>
<path d="M30.46 77.5709L28.924 77.5589V74.1029C28.924 73.8469 28.996 73.6429 29.14 73.4909C29.292 73.3389 29.496 73.2629 29.752 73.2629C29.896 73.2629 30.036 73.2749 30.172 73.2989C30.308 73.3229 30.404 73.3469 30.46 73.3709V77.5709ZM29.74 77.6909V76.4429H33.328C33.368 76.5069 33.404 76.5909 33.436 76.6949C33.476 76.7989 33.496 76.9149 33.496 77.0429C33.496 77.2589 33.444 77.4229 33.34 77.5349C33.244 77.6389 33.112 77.6909 32.944 77.6909H29.74ZM29.752 74.5349V73.2629H33.748C33.788 73.3269 33.824 73.4149 33.856 73.5269C33.888 73.6309 33.904 73.7469 33.904 73.8749C33.904 74.0909 33.852 74.2549 33.748 74.3669C33.652 74.4789 33.52 74.5349 33.352 74.5349H29.752ZM28.924 76.6709H30.484V80.5349C30.42 80.5509 30.32 80.5709 30.184 80.5949C30.048 80.6189 29.908 80.6309 29.764 80.6309C29.46 80.6309 29.244 80.5749 29.116 80.4629C28.988 80.3509 28.924 80.1629 28.924 79.8989V76.6709ZM35.4166 78.4709L35.3566 77.4029L38.5366 76.9349C38.5126 76.6389 38.3966 76.3829 38.1886 76.1669C37.9806 75.9429 37.6846 75.8309 37.3006 75.8309C36.8926 75.8309 36.5566 75.9709 36.2926 76.2509C36.0286 76.5309 35.8926 76.9309 35.8846 77.4509L35.9206 78.0989C35.9846 78.5949 36.1766 78.9629 36.4966 79.2029C36.8246 79.4349 37.2326 79.5509 37.7206 79.5509C38.0566 79.5509 38.3686 79.5029 38.6566 79.4069C38.9446 79.3029 39.1766 79.1949 39.3526 79.0829C39.4566 79.1469 39.5446 79.2349 39.6166 79.3469C39.6886 79.4589 39.7246 79.5789 39.7246 79.7069C39.7246 79.9149 39.6326 80.0989 39.4486 80.2589C39.2646 80.4109 39.0126 80.5269 38.6926 80.6069C38.3806 80.6869 38.0246 80.7269 37.6246 80.7269C37.0006 80.7269 36.4486 80.6109 35.9686 80.3789C35.4966 80.1469 35.1246 79.8029 34.8526 79.3469C34.5886 78.8829 34.4566 78.3149 34.4566 77.6429C34.4566 77.1469 34.5326 76.7149 34.6846 76.3469C34.8366 75.9709 35.0446 75.6629 35.3086 75.4229C35.5726 75.1749 35.8726 74.9909 36.2086 74.8709C36.5526 74.7429 36.9166 74.6789 37.3006 74.6789C37.8286 74.6789 38.2926 74.7869 38.6926 75.0029C39.0926 75.2189 39.4046 75.5149 39.6286 75.8909C39.8526 76.2669 39.9646 76.6989 39.9646 77.1869C39.9646 77.4109 39.9046 77.5789 39.7846 77.6909C39.6726 77.8029 39.5126 77.8749 39.3046 77.9069L35.4166 78.4709ZM46.1464 76.6229V77.9909H44.6224V76.8029C44.6224 76.4829 44.5304 76.2509 44.3464 76.1069C44.1704 75.9629 43.9384 75.8909 43.6504 75.8909C43.4584 75.8909 43.2744 75.9229 43.0984 75.9869C42.9304 76.0509 42.7904 76.1149 42.6784 76.1789V77.9909H41.1544V76.0709C41.1544 75.8869 41.1944 75.7349 41.2744 75.6149C41.3544 75.4869 41.4784 75.3669 41.6464 75.2549C41.8864 75.0949 42.1904 74.9589 42.5584 74.8469C42.9344 74.7349 43.3144 74.6789 43.6984 74.6789C44.0904 74.6789 44.4504 74.7389 44.7784 74.8589C45.1064 74.9789 45.3824 75.1589 45.6064 75.3989C45.6624 75.4549 45.7144 75.5069 45.7624 75.5549C45.8184 75.6029 45.8624 75.6589 45.8944 75.7229C45.9664 75.8349 46.0264 75.9709 46.0744 76.1309C46.1224 76.2829 46.1464 76.4469 46.1464 76.6229ZM49.6264 76.7429V77.9909H48.1024V76.8029C48.1024 76.4829 48.0144 76.2509 47.8384 76.1069C47.6624 75.9629 47.4304 75.8909 47.1424 75.8909C46.9264 75.8909 46.7224 75.9349 46.5304 76.0229C46.3384 76.1109 46.1664 76.2269 46.0144 76.3709L45.2584 75.4349C45.4984 75.2349 45.7864 75.0589 46.1224 74.9069C46.4664 74.7549 46.8744 74.6789 47.3464 74.6789C47.7624 74.6789 48.1424 74.7509 48.4864 74.8949C48.8304 75.0389 49.1064 75.2629 49.3144 75.5669C49.5224 75.8629 49.6264 76.2549 49.6264 76.7429ZM41.1544 77.4149H42.6784V80.5349C42.6144 80.5509 42.5184 80.5709 42.3904 80.5949C42.2704 80.6189 42.1384 80.6309 41.9944 80.6309C41.7064 80.6309 41.4944 80.5789 41.3584 80.4749C41.2224 80.3709 41.1544 80.1869 41.1544 79.9229V77.4149ZM44.6224 77.4149H46.1464V80.5349C46.0824 80.5509 45.9864 80.5709 45.8584 80.5949C45.7384 80.6189 45.6064 80.6309 45.4624 80.6309C45.1744 80.6309 44.9624 80.5789 44.8264 80.4749C44.6904 80.3709 44.6224 80.1869 44.6224 79.9229V77.4149ZM48.1024 77.4149H49.6264V80.5349C49.5544 80.5509 49.4544 80.5709 49.3264 80.5949C49.2064 80.6189 49.0744 80.6309 48.9304 80.6309C48.6424 80.6309 48.4304 80.5789 48.2944 80.4749C48.1664 80.3709 48.1024 80.1869 48.1024 79.9229V77.4149ZM53.3828 80.7269C52.5908 80.7269 51.9628 80.5709 51.4988 80.2589C51.0348 79.9469 50.8028 79.4869 50.8028 78.8789C50.8028 78.3429 50.9708 77.9309 51.3068 77.6429C51.6508 77.3549 52.1468 77.1789 52.7948 77.1149L54.4388 76.9469V76.7429C54.4388 76.4309 54.3268 76.2069 54.1028 76.0709C53.8788 75.9269 53.5708 75.8549 53.1788 75.8549C52.8668 75.8549 52.5628 75.8949 52.2668 75.9749C51.9708 76.0549 51.7068 76.1469 51.4748 76.2509C51.3868 76.1869 51.3108 76.0989 51.2468 75.9869C51.1908 75.8749 51.1628 75.7589 51.1628 75.6389C51.1628 75.3349 51.3228 75.1149 51.6428 74.9789C51.8668 74.8829 52.1268 74.8109 52.4228 74.7629C52.7268 74.7069 53.0308 74.6789 53.3348 74.6789C54.1188 74.6789 54.7428 74.8469 55.2068 75.1829C55.6788 75.5189 55.9148 76.0429 55.9148 76.7549V79.5269C55.9148 79.7189 55.8668 79.8709 55.7708 79.9829C55.6828 80.0949 55.5628 80.1949 55.4108 80.2829C55.1868 80.4109 54.9028 80.5149 54.5588 80.5949C54.2148 80.6829 53.8228 80.7269 53.3828 80.7269ZM53.3828 79.5749C53.6148 79.5749 53.8268 79.5509 54.0188 79.5029C54.2108 79.4549 54.3508 79.4029 54.4388 79.3469V78.0149L53.2748 78.1229C52.9628 78.1469 52.7188 78.2189 52.5428 78.3389C52.3748 78.4509 52.2908 78.6189 52.2908 78.8429C52.2908 79.0669 52.3788 79.2469 52.5548 79.3829C52.7308 79.5109 53.0068 79.5749 53.3828 79.5749ZM57.4803 77.3789L59.0043 77.4509V80.5349C58.9403 80.5509 58.8443 80.5709 58.7163 80.5949C58.5963 80.6189 58.4643 80.6309 58.3203 80.6309C58.0323 80.6309 57.8203 80.5789 57.6843 80.4749C57.5483 80.3709 57.4803 80.1869 57.4803 79.9229V77.3789ZM59.0043 78.2189L57.4803 78.1589V72.7469C57.5523 72.7229 57.6483 72.7029 57.7683 72.6869C57.8963 72.6629 58.0323 72.6509 58.1763 72.6509C58.4643 72.6509 58.6723 72.7029 58.8003 72.8069C58.9363 72.9029 59.0043 73.0869 59.0043 73.3589V78.2189ZM61.2798 78.4709L61.2198 77.4029L64.3998 76.9349C64.3758 76.6389 64.2598 76.3829 64.0518 76.1669C63.8438 75.9429 63.5478 75.8309 63.1638 75.8309C62.7558 75.8309 62.4198 75.9709 62.1558 76.2509C61.8918 76.5309 61.7558 76.9309 61.7478 77.4509L61.7838 78.0989C61.8478 78.5949 62.0398 78.9629 62.3598 79.2029C62.6878 79.4349 63.0958 79.5509 63.5838 79.5509C63.9198 79.5509 64.2318 79.5029 64.5198 79.4069C64.8078 79.3029 65.0398 79.1949 65.2158 79.0829C65.3198 79.1469 65.4078 79.2349 65.4798 79.3469C65.5518 79.4589 65.5878 79.5789 65.5878 79.7069C65.5878 79.9149 65.4958 80.0989 65.3118 80.2589C65.1278 80.4109 64.8758 80.5269 64.5558 80.6069C64.2438 80.6869 63.8878 80.7269 63.4878 80.7269C62.8638 80.7269 62.3118 80.6109 61.8318 80.3789C61.3598 80.1469 60.9878 79.8029 60.7158 79.3469C60.4518 78.8829 60.3198 78.3149 60.3198 77.6429C60.3198 77.1469 60.3958 76.7149 60.5478 76.3469C60.6998 75.9709 60.9078 75.6629 61.1718 75.4229C61.4358 75.1749 61.7358 74.9909 62.0718 74.8709C62.4158 74.7429 62.7798 74.6789 63.1638 74.6789C63.6918 74.6789 64.1558 74.7869 64.5558 75.0029C64.9558 75.2189 65.2678 75.5149 65.4918 75.8909C65.7158 76.2669 65.8278 76.6989 65.8278 77.1869C65.8278 77.4109 65.7678 77.5789 65.6478 77.6909C65.5358 77.8029 65.3758 77.8749 65.1678 77.9069L61.2798 78.4709Z" fill="white"/>
</svg>
