<svg width="32" height="32" viewBox="0 0 32 32" fill="none" xmlns="http://www.w3.org/2000/svg">
<g clip-path="url(#clip0_0_484)">
<path d="M32 16C32 7.16344 24.8366 0 16 0C7.16344 0 0 7.16344 0 16C0 24.8366 7.16344 32 16 32C24.8366 32 32 24.8366 32 16Z" fill="#242424"/>
<g clip-path="url(#clip1_0_484)">
<path d="M24.1169 16.1499C24.1169 15.4944 24.0637 15.016 23.9487 14.52H16.4683V17.4786H20.8591C20.7706 18.2139 20.2926 19.3212 19.2302 20.0652L19.2154 20.1643L21.5805 21.9978L21.7444 22.0141C23.2493 20.6233 24.1169 18.5771 24.1169 16.1499Z" fill="white"/>
<path d="M16.4682 23.9452C18.6193 23.9452 20.4253 23.2365 21.7443 22.0141L19.2302 20.0652C18.5574 20.5347 17.6544 20.8625 16.4682 20.8625C14.3613 20.8625 12.5731 19.4718 11.9356 17.5495L11.8422 17.5574L9.38287 19.462L9.35071 19.5515C10.6609 22.1558 13.3521 23.9452 16.4682 23.9452Z" fill="white"/>
<path d="M11.9357 17.5495C11.7675 17.0534 11.6702 16.5219 11.6702 15.9727C11.6702 15.4234 11.7675 14.892 11.9269 14.3959L11.9224 14.2902L9.43228 12.3551L9.3508 12.3939C8.81082 13.4746 8.50098 14.6882 8.50098 15.9727C8.50098 17.2571 8.81082 18.4707 9.3508 19.5514L11.9357 17.5495Z" fill="white"/>
<path d="M16.4682 11.0829C17.9643 11.0829 18.9734 11.7295 19.5489 12.2699L21.7974 10.073C20.4165 8.78858 18.6193 8.00018 16.4682 8.00018C13.3521 8.00018 10.6609 9.78956 9.35071 12.3939L11.9268 14.3959C12.5731 12.4736 14.3613 11.0829 16.4682 11.0829Z" fill="white"/>
</g>
</g>
<defs>
<clipPath id="clip0_0_484">
<rect width="32" height="32" fill="white"/>
</clipPath>
<clipPath id="clip1_0_484">
<rect width="15.625" height="16" fill="white" transform="translate(8.50012 8.00018)"/>
</clipPath>
</defs>
</svg>
