<svg width="24" height="24" viewBox="0 0 24 24" fill="none" xmlns="http://www.w3.org/2000/svg">
<path d="M2.54834 16.9292C2.5923 16.9776 2.63776 17.0246 2.68408 17.0708L6.92822 21.3149V21.3159C6.97346 21.3613 7.02056 21.4047 7.06787 21.4478C6.79666 21.6098 6.48565 21.6997 6.16455 21.6997C5.759 21.6996 5.36767 21.5602 5.05518 21.3071L4.92627 21.1919L2.80615 19.0718C2.47843 18.7437 2.29443 18.2982 2.29443 17.8345C2.29452 17.5125 2.38429 17.2002 2.54834 16.9292ZM14.0679 3.93896C14.5318 3.93901 14.977 4.12362 15.3052 4.45166L19.5493 8.69482C19.8773 9.02298 20.061 9.46814 20.061 9.93213C20.061 10.3382 19.9207 10.7301 19.6655 11.0415L19.5493 11.1694L19.0718 11.646C18.9093 11.8085 18.7158 11.9379 18.5034 12.0259C18.2911 12.1138 18.0633 12.1587 17.8335 12.1587C17.6039 12.1586 17.3767 12.1137 17.1646 12.0259C16.9522 11.9379 16.7587 11.8085 16.5962 11.646L15.0044 10.0562L14.6509 9.70264L10.0552 14.2983L9.70264 14.6519L10.0552 15.0054L11.646 16.5972C11.9741 16.9253 12.1587 17.3704 12.1587 17.8345C12.1586 18.2981 11.9746 18.7428 11.647 19.0708L11.1685 19.5483C10.8403 19.8763 10.3951 20.061 9.93115 20.061C9.46722 20.061 9.02195 19.8763 8.69385 19.5483L4.45068 15.3052C4.12265 14.977 3.93803 14.5318 3.93799 14.0679C3.93799 13.6618 4.07935 13.2699 4.33447 12.9585L4.45068 12.8306L4.92822 12.354V12.353C5.09072 12.1905 5.28427 12.0621 5.49658 11.9741C5.70886 11.8862 5.93674 11.8403 6.1665 11.8403C6.39609 11.8404 6.62333 11.8863 6.83545 11.9741C7.04773 12.0621 7.24133 12.1906 7.40381 12.353V12.354L8.99561 13.9438L9.34912 14.2974L9.70264 13.9438L13.9438 9.70166L14.2974 9.34814L13.9448 8.99463L12.354 7.40283C12.0259 7.07466 11.8413 6.62956 11.8413 6.16553C11.8414 5.70155 12.026 5.25636 12.354 4.92822L12.353 4.92725L12.8306 4.45166C13.1587 4.12359 13.6038 3.93896 14.0679 3.93896ZM17.8345 2.29443C18.2401 2.29443 18.6316 2.43535 18.9429 2.68994L19.0718 2.80615L21.1938 4.92822C21.5214 5.25625 21.7055 5.70097 21.7056 6.16455C21.7056 6.4868 21.6139 6.79867 21.4497 7.06982C21.406 7.02177 21.361 6.97414 21.3149 6.92822L17.0708 2.68408H17.0718C17.0254 2.63759 16.9777 2.59245 16.9292 2.54834C17.2002 2.38429 17.5125 2.29452 17.8345 2.29443Z" stroke="#FF4100"/>
</svg>
