<svg width="24" height="24" viewBox="0 0 24 24" fill="none" xmlns="http://www.w3.org/2000/svg">
<path d="M12 1.25073C12.7285 1.25073 13.4361 1.49586 14.0088 1.94604L20.9307 7.38354H20.9316C21.4984 7.82807 21.9565 8.396 22.2715 9.0437C22.5865 9.6914 22.7502 10.4026 22.75 11.1228V17.9998C22.75 19.2595 22.2492 20.4683 21.3584 21.3591C20.4676 22.2497 19.2596 22.7498 18 22.7498H15.75C15.6837 22.7498 15.6201 22.7234 15.5732 22.6765C15.5265 22.6296 15.5 22.566 15.5 22.4998V17.2498C15.4999 16.3216 15.1309 15.4315 14.4746 14.7751C13.8593 14.16 13.0387 13.7976 12.1738 13.7546L12 13.7498C11.0718 13.7498 10.1818 14.1189 9.52539 14.7751C8.86909 15.4315 8.50008 16.3216 8.5 17.2498V22.4998C8.5 22.566 8.47355 22.6296 8.42676 22.6765C8.37987 22.7234 8.3163 22.7498 8.25 22.7498H6C4.74038 22.7498 3.53237 22.2497 2.6416 21.3591C1.7508 20.4683 1.25 19.2595 1.25 17.9998V11.1228C1.24979 10.4026 1.41352 9.6914 1.72852 9.0437C2.04355 8.396 2.50165 7.82807 3.06836 7.38354H3.06934L9.99121 1.94604C10.5639 1.49586 11.2715 1.25073 12 1.25073Z" stroke="#D3D3D3"/>
</svg>
