<svg width="95" height="95" viewBox="0 0 95 95" fill="none" xmlns="http://www.w3.org/2000/svg">
<rect x="0.5" y="0.5" width="94" height="94" rx="47" stroke="white"/>
<path d="M49.2031 23.2059V15.2119L51.4172 17.423C51.5665 17.5899 51.7506 17.7221 51.9566 17.8103C52.1626 17.8984 52.3854 17.9404 52.6094 17.9333C53.055 17.9104 53.4777 17.7294 53.8016 17.423C54.1136 17.1051 54.2884 16.6776 54.2884 16.2324C54.2884 15.7872 54.1136 15.3598 53.8016 15.0418L48.6922 9.93932C48.3738 9.62768 47.9458 9.45312 47.5 9.45312C47.0542 9.45312 46.6262 9.62768 46.3078 9.93932L41.1985 15.0418C40.9525 15.3694 40.8331 15.7745 40.8621 16.1829C40.8912 16.5913 41.0668 16.9755 41.3567 17.265C41.6466 17.5545 42.0313 17.7299 42.4402 17.7589C42.8492 17.7879 43.2549 17.6687 43.5828 17.423L45.7969 15.2119V23.2059C40.9958 23.6436 36.5484 25.9128 33.3799 29.5416C30.2114 33.1704 28.5657 37.8793 28.785 42.6889C29.0044 47.4986 31.072 52.0386 34.5577 55.3647C38.0434 58.6908 42.6789 60.5469 47.5 60.5469C52.3211 60.5469 56.9566 58.6908 60.4423 55.3647C63.928 52.0386 65.9956 47.4986 66.215 42.6889C66.4344 37.8793 64.7886 33.1704 61.6201 29.5416C58.4516 25.9128 54.0043 23.6436 49.2031 23.2059ZM47.5 57.0526C44.4684 57.0526 41.5049 56.1548 38.9842 54.4728C36.4635 52.7908 34.4988 50.4001 33.3387 47.603C32.1785 44.8059 31.875 41.728 32.4664 38.7587C33.0579 35.7893 34.5177 33.0617 36.6614 30.9209C38.8051 28.7801 41.5363 27.3222 44.5097 26.7316C47.483 26.141 50.565 26.4441 53.3658 27.6027C56.1667 28.7613 58.5606 30.7233 60.2449 33.2406C61.9292 35.7579 62.8281 38.7175 62.8281 41.745C62.8281 45.8048 61.2132 49.6984 58.3386 52.5691C55.4641 55.4398 51.5653 57.0526 47.5 57.0526Z" fill="white"/>
<path d="M40.02 78.7109C39.94 78.7669 39.836 78.8189 39.708 78.8669C39.58 78.9069 39.432 78.9269 39.264 78.9269C39.056 78.9269 38.876 78.8989 38.724 78.8429C38.58 78.7869 38.484 78.6949 38.436 78.5669C38.116 77.7589 37.844 77.0669 37.62 76.4909C37.396 75.9069 37.216 75.4109 37.08 75.0029H37.02C36.996 75.5389 36.976 76.0349 36.96 76.4909C36.944 76.9389 36.924 77.3749 36.9 77.7989C36.884 78.2149 36.864 78.6469 36.84 79.0949C36.824 79.5349 36.8 80.0109 36.768 80.5229C36.696 80.5469 36.596 80.5709 36.468 80.5949C36.348 80.6189 36.224 80.6309 36.096 80.6309C35.832 80.6309 35.628 80.5829 35.484 80.4869C35.348 80.3909 35.28 80.2349 35.28 80.0189C35.28 79.8749 35.288 79.6309 35.304 79.2869C35.32 78.9349 35.34 78.5269 35.364 78.0629C35.396 77.5909 35.428 77.0909 35.46 76.5629C35.5 76.0349 35.536 75.5149 35.568 75.0029C35.608 74.4909 35.644 74.0229 35.676 73.5989C35.74 73.5189 35.856 73.4389 36.024 73.3589C36.2 73.2709 36.424 73.2269 36.696 73.2269C37.008 73.2269 37.256 73.2789 37.44 73.3829C37.632 73.4789 37.772 73.6429 37.86 73.8749C38.012 74.2029 38.164 74.5749 38.316 74.9909C38.476 75.3989 38.632 75.8109 38.784 76.2269C38.944 76.6429 39.092 77.0229 39.228 77.3669H39.276C39.548 76.6149 39.816 75.8869 40.08 75.1829C40.352 74.4709 40.584 73.8749 40.776 73.3949C40.872 73.3469 40.996 73.3069 41.148 73.2749C41.308 73.2429 41.468 73.2269 41.628 73.2269C41.924 73.2269 42.16 73.2709 42.336 73.3589C42.52 73.4469 42.628 73.5789 42.66 73.7549C42.692 73.9069 42.728 74.1469 42.768 74.4749C42.808 74.8029 42.848 75.1829 42.888 75.6149C42.928 76.0469 42.964 76.4989 42.996 76.9709C43.036 77.4429 43.072 77.9069 43.104 78.3629C43.144 78.8109 43.176 79.2189 43.2 79.5869C43.224 79.9469 43.24 80.2309 43.248 80.4389C43.144 80.5029 43.032 80.5509 42.912 80.5829C42.8 80.6149 42.66 80.6309 42.492 80.6309C42.284 80.6309 42.1 80.5909 41.94 80.5109C41.788 80.4229 41.704 80.2629 41.688 80.0309C41.648 79.3509 41.612 78.6989 41.58 78.0749C41.556 77.4509 41.532 76.8789 41.508 76.3589C41.492 75.8389 41.472 75.4029 41.448 75.0509H41.4C41.272 75.4269 41.096 75.9029 40.872 76.4789C40.648 77.0549 40.364 77.7989 40.02 78.7109ZM46.9688 80.7269C46.1768 80.7269 45.5488 80.5709 45.0848 80.2589C44.6208 79.9469 44.3888 79.4869 44.3888 78.8789C44.3888 78.3429 44.5568 77.9309 44.8928 77.6429C45.2368 77.3549 45.7328 77.1789 46.3808 77.1149L48.0248 76.9469V76.7429C48.0248 76.4309 47.9128 76.2069 47.6888 76.0709C47.4648 75.9269 47.1568 75.8549 46.7648 75.8549C46.4528 75.8549 46.1488 75.8949 45.8528 75.9749C45.5568 76.0549 45.2928 76.1469 45.0608 76.2509C44.9728 76.1869 44.8968 76.0989 44.8328 75.9869C44.7768 75.8749 44.7488 75.7589 44.7488 75.6389C44.7488 75.3349 44.9088 75.1149 45.2288 74.9789C45.4528 74.8829 45.7128 74.8109 46.0088 74.7629C46.3128 74.7069 46.6168 74.6789 46.9208 74.6789C47.7048 74.6789 48.3288 74.8469 48.7928 75.1829C49.2648 75.5189 49.5008 76.0429 49.5008 76.7549V79.5269C49.5008 79.7189 49.4528 79.8709 49.3568 79.9829C49.2688 80.0949 49.1488 80.1949 48.9968 80.2829C48.7728 80.4109 48.4888 80.5149 48.1448 80.5949C47.8008 80.6829 47.4088 80.7269 46.9688 80.7269ZM46.9688 79.5749C47.2008 79.5749 47.4128 79.5509 47.6048 79.5029C47.7968 79.4549 47.9368 79.4029 48.0248 79.3469V78.0149L46.8608 78.1229C46.5488 78.1469 46.3048 78.2189 46.1288 78.3389C45.9608 78.4509 45.8768 78.6189 45.8768 78.8429C45.8768 79.0669 45.9648 79.2469 46.1408 79.3829C46.3168 79.5109 46.5928 79.5749 46.9688 79.5749ZM51.0663 77.3789L52.5903 77.4509V80.5349C52.5263 80.5509 52.4303 80.5709 52.3023 80.5949C52.1823 80.6189 52.0503 80.6309 51.9063 80.6309C51.6183 80.6309 51.4063 80.5789 51.2703 80.4749C51.1343 80.3709 51.0663 80.1869 51.0663 79.9229V77.3789ZM52.5903 78.2189L51.0663 78.1589V72.7469C51.1383 72.7229 51.2343 72.7029 51.3543 72.6869C51.4823 72.6629 51.6183 72.6509 51.7623 72.6509C52.0503 72.6509 52.2583 72.7029 52.3863 72.8069C52.5223 72.9029 52.5903 73.0869 52.5903 73.3589V78.2189ZM54.8658 78.4709L54.8058 77.4029L57.9858 76.9349C57.9618 76.6389 57.8458 76.3829 57.6378 76.1669C57.4298 75.9429 57.1338 75.8309 56.7498 75.8309C56.3418 75.8309 56.0058 75.9709 55.7418 76.2509C55.4778 76.5309 55.3418 76.9309 55.3338 77.4509L55.3698 78.0989C55.4338 78.5949 55.6258 78.9629 55.9458 79.2029C56.2738 79.4349 56.6818 79.5509 57.1698 79.5509C57.5058 79.5509 57.8178 79.5029 58.1058 79.4069C58.3938 79.3029 58.6258 79.1949 58.8018 79.0829C58.9058 79.1469 58.9938 79.2349 59.0658 79.3469C59.1378 79.4589 59.1738 79.5789 59.1738 79.7069C59.1738 79.9149 59.0818 80.0989 58.8978 80.2589C58.7138 80.4109 58.4618 80.5269 58.1418 80.6069C57.8298 80.6869 57.4738 80.7269 57.0738 80.7269C56.4498 80.7269 55.8978 80.6109 55.4178 80.3789C54.9458 80.1469 54.5738 79.8029 54.3018 79.3469C54.0378 78.8829 53.9058 78.3149 53.9058 77.6429C53.9058 77.1469 53.9818 76.7149 54.1338 76.3469C54.2858 75.9709 54.4938 75.6629 54.7578 75.4229C55.0218 75.1749 55.3218 74.9909 55.6578 74.8709C56.0018 74.7429 56.3658 74.6789 56.7498 74.6789C57.2778 74.6789 57.7418 74.7869 58.1418 75.0029C58.5418 75.2189 58.8538 75.5149 59.0778 75.8909C59.3018 76.2669 59.4138 76.6989 59.4138 77.1869C59.4138 77.4109 59.3538 77.5789 59.2338 77.6909C59.1218 77.8029 58.9618 77.8749 58.7538 77.9069L54.8658 78.4709Z" fill="white"/>
</svg>
