<svg width="24" height="24" viewBox="0 0 24 24" fill="none" xmlns="http://www.w3.org/2000/svg">
<path d="M9.88867 16.0479C11.3015 15.934 12.7209 15.934 14.1338 16.0479L14.1445 16.0488C14.9063 16.0932 15.6653 16.1884 16.415 16.334V16.333C17.9557 16.6455 18.827 17.1172 19.2217 17.7305L19.2939 17.8555C19.5684 18.4042 19.5684 19.0567 19.2939 19.6055C18.9368 20.2857 18.0877 20.831 16.4062 21.125L16.3936 21.127C15.6457 21.2778 14.8888 21.3763 14.1279 21.4209L14.1152 21.4219L14.1016 21.4229C13.4068 21.4994 12.7075 21.5 11.9678 21.5H10.668C10.393 21.4662 10.1241 21.4472 9.86133 21.4463C9.10285 21.4071 8.34791 21.3131 7.60254 21.1631L7.59863 21.1621L7.2998 21.1006C5.94953 20.8026 5.16282 20.3423 4.79297 19.7666L4.71973 19.6416C4.57692 19.3686 4.50126 19.0626 4.5 18.751V18.748L4.51172 18.5146C4.53778 18.2832 4.60634 18.0586 4.71289 17.8525V17.8516C5.05998 17.1784 5.94392 16.6397 7.59473 16.335L7.60059 16.334C8.352 16.1865 9.11217 16.0911 9.87598 16.0488L9.88867 16.0479ZM12.0029 2.5C14.6138 2.50017 16.7539 4.68082 16.7539 7.40039C16.7539 10.1199 14.6138 12.3006 12.0029 12.3008C9.39196 12.3008 7.25099 10.12 7.25098 7.40039C7.25098 4.68072 9.39195 2.5 12.0029 2.5Z" stroke="white"/>
</svg>
